<?xml version="1.0" encoding="utf-8"?>
<!-- Generator: Adobe Illustrator 26.1.0, SVG Export Plug-In . SVG Version: 6.00 Build 0)  -->
<svg version="1.1" id="Layer_1" xmlns="http://www.w3.org/2000/svg" xmlns:xlink="http://www.w3.org/1999/xlink" x="0px" y="0px"
	 viewBox="0 0 512 512" style="enable-background:new 0 0 512 512;" xml:space="preserve">
<path d="M394.1,416.2l24.3-41.9c5-8.7,16.2-11.7,24.8-6.6c0,0,0,0,0,0l68.7,39.9c0.2-46.7-37.6-84.7-84.3-84.9
	c-8.3,0-16.6,1.2-24.6,3.6c-4.5-1.9-8.6-4.7-12-8.2l-84.8-88.2l124.2-124.1l50-20.3l20.3-50L471,5.6l-50,20.3l-20.3,50L277.2,199.5
	l-61.6-64.2c-3.7-3.8-6.5-8.4-8.2-13.4c13.9-44.7-11.1-92.2-55.8-106c-22.5-7-46.9-4.3-67.4,7.5l68.7,39.9c8.7,5,11.6,16.1,6.6,24.8
	l-24.3,41.9c-5.1,8.7-16.2,11.6-24.9,6.6L41.7,96.7c-0.1,46.8,37.7,84.8,84.4,84.9c8.3,0,16.6-1.2,24.5-3.6
	c4.5,1.9,8.6,4.7,11.9,8.2l62.7,65.2l-13.8,13.8l0,0c-12.3-12.3-33.2-11.4-46.6,2.1L10.7,421.4C-2.7,434.8-3.6,455.7,8.7,468
	l29.7,29.7c12.3,12.3,33.1,11.4,46.6-2.1l154.1-154.1c13.4-13.4,14.4-34.3,2.1-46.6l0,0l13.2-13.2l11.1,11.6l0,0l72.6,75.6
	c3.7,3.8,6.5,8.4,8.1,13.5c-13.8,44.7,11.2,92.1,55.9,106c22.5,7,46.9,4.3,67.3-7.5L400.8,441C392.1,436,389.1,424.9,394.1,416.2
	C394.1,416.2,394.1,416.2,394.1,416.2z"/>
</svg>
