<?xml version="1.0" encoding="utf-8"?>
<!-- Generator: Adobe Illustrator 26.1.0, SVG Export Plug-In . SVG Version: 6.00 Build 0)  -->
<svg version="1.1" id="Layer_1" xmlns="http://www.w3.org/2000/svg" xmlns:xlink="http://www.w3.org/1999/xlink" x="0px" y="0px"
	 viewBox="0 0 116.8 122.9" style="enable-background:new 0 0 116.8 122.9;" xml:space="preserve">
<style type="text/css">
	.st0{fill:#42AD32;}
	.st1{fill:#1A1A1A;}
</style>
<path class="st0" d="M18,81.1l-5.8-56.9c-0.2-1.7,0.7-3.3,2.2-4.2C41.6,2.6,54.7,9.7,66.7,16.2c9.5,5.1,18.2,9.8,37.1-6.2
	c1.8-1.6,4.6-1.4,6.2,0.4c0.6,0.7,0.9,1.5,1,2.4l5.8,56.9c0.1,1.3-0.4,2.7-1.4,3.6c-21.8,19.8-35,13.2-48.6,6.3
	c-11-5.6-22.4-11.3-41.5,4.5c-1.9,1.5-4.6,1.3-6.2-0.5C18.4,82.9,18,82,18,81.1z"/>
<path class="st1" d="M17.9,16.7l9.9,98.6c0.5,3.8-2.2,7.2-6,7.7c-3.8,0.5-7.2-2.2-7.7-6c0-0.1,0-0.2,0-0.3L4.2,18.4
	c-4.5-3.3-5.6-9.6-2.3-14.2s9.6-5.6,14.2-2.3s5.6,9.6,2.3,14.2C18.2,16.3,18.1,16.5,17.9,16.7z"/>
</svg>
